#!OML:ASF F:\VICON\USERDATA\INSTALL\rory3\rory3.ASF
:FULLY-SPECIFIED
:DEGREES
1675
root -1.8769 17.8168 0.187798 3.38264 46.4846 -6.41887
lowerback 28.1163 -5.30636 -6.49515
upperback 6.75139 -8.15766 1.64336
thorax -6.62155 -3.76056 8.13374
lowerneck -20.4997 9.39587 -8.02441
upperneck 30.4515 17.5723 -2.53704
head 13.2809 6.34671 3.25011
rclavicle 8.34896e-014 7.95139e-015
rhumerus -46.0975 -5.15501 -72.5819
rradius 44.0915
rwrist 14.3289
rhand -25.3742 7.76354
rfingers 7.12502
rthumb 1.15019 -22.2131
lclavicle 8.34896e-014 7.95139e-015
lhumerus 41.1715 -5.20336 78.1535
lradius 80.4703
lwrist 14.4714
lhand -18.5099 12.1906
lfingers 7.12502
lthumb 7.77825 42.0275
rfemur -98.4042 4.10708 17.0721
rtibia 108.115
rfoot -4.14669 2.66493
rtoes -4.70349
lfemur -28.3134 -4.63545 -15.8021
ltibia 30.5992
lfoot -1.67293 -25.6737
ltoes 9.49041
1676
root -1.90645 17.8253 0.186593 3.28627 46.7362 -6.81772
lowerback 28.5367 -5.39518 -6.51426
upperback 6.87534 -8.27394 1.7049
thorax -6.65026 -3.81288 8.28771
lowerneck -20.5759 9.46356 -8.13862
upperneck 30.3346 17.6542 -2.43433
head 13.2186 6.39035 3.31282
rclavicle 4.05521e-014 0
rhumerus -46.4062 -5.2343 -72.5823
rradius 43.9334
rwrist 14.2688
rhand -25.4088 7.43812
rfingers 7.12502
rthumb 1.11673 -22.5387
lclavicle 4.05521e-014 0
lhumerus 42.5722 -5.25981 77.328
lradius 80.8702
lwrist 14.2565
lhand -18.4565 11.789
lfingers 7.12502
lthumb 7.82972 41.6241
rfemur -100.117 4.62554 16.8127
rtibia 107.831
rfoot -4.16229 2.45406
rtoes 4.25564
lfemur -28.5891 -4.51649 -15.4645
ltibia 30.4293
lfoot -1.28452 -25.8518
ltoes 9.63066
1677
root -1.93289 17.8342 0.190465 3.15558 46.9758 -7.01426
lowerback 29.0273 -5.4366 -6.68926
upperback 7.05083 -8.37906 1.69382
thorax -6.64217 -3.86067 8.44905
lowerneck -20.5805 9.53878 -8.03666
upperneck 30.238 17.7263 -2.49454
head 13.193 6.4288 3.28244
rclavicle -3.02153e-014 4.29375e-014
rhumerus -46.7848 -5.39365 -72.5702
rradius 43.7761
rwrist 14.171
rhand -25.4208 7.51253
rfingers 7.12502
rthumb 1.10519 -22.4644
lclavicle -3.02153e-014 4.29375e-014
lhumerus 43.9274 -5.3706 76.4232
lradius 81.1685
lwrist 14.276
lhand -18.6806 11.5159
lfingers 7.12502
lthumb 7.61345 41.3589
rfemur -101.504 5.07123 16.5388
rtibia 107.546
rfoot -3.32872 2.53257
rtoes 8.52065
lfemur -28.631 -4.31045 -15.3347
ltibia 30.2686
lfoot -0.949882 -26.164
ltoes 9.77884
1678
root -1.95303 17.8393 0.197551 3.22125 47.3231 -6.9623
lowerback 29.3958 -5.52273 -6.89909
upperback 7.21985 -8.55549 1.58772
thorax -6.57859 -3.94572 8.52902
lowerneck -20.6111 9.5763 -7.94486
upperneck 30.2088 17.7107 -2.40767
head 13.1825 6.44318 3.29802
rclavicle -3.33958e-014 1.74931e-014
rhumerus -47.2306 -5.69272 -72.5951
rradius 43.6161
rwrist 14.3234
rhand -25.4735 7.46006
rfingers 7.12502
rthumb 1.05421 -22.5171
lclavicle -3.33958e-014 1.74931e-014
lhumerus 45.2013 -5.48037 75.4642
lradius 81.4972
lwrist 14.2763
lhand -19.0144 11.2766
lfingers 7.12502
lthumb 7.29128 41.131
rfemur -102.798 5.3284 16.1867
rtibia 107.26
rfoot -2.42131 2.69872
rtoes 7.77814
lfemur -28.6979 -4.32133 -15.3702
ltibia 30.1554
lfoot -0.491922 -26.4331
ltoes 10.5878
1679
root -1.97584 17.8431 0.200664 3.1415 47.5178 -7.10502
lowerback 29.7732 -5.55172 -7.07449
upperback 7.39456 -8.64103 1.58611
thorax -6.51413 -3.98955 8.68157
lowerneck -20.6217 9.57984 -8.11555
upperneck 30.1504 17.6999 -2.23899
head 13.1208 6.44852 3.37639
rclavicle 1.04163e-013 -7.79236e-014
rhumerus -47.5324 -6.02445 -72.4422
rradius 43.3503
rwrist 14.5512
rhand -25.702 7.594
rfingers 7.12502
rthumb 0.833523 -22.3841
lclavicle 1.04163e-013 -7.79236e-014
lhumerus 46.3907 -5.34306 74.8261
lradius 81.8278
lwrist 13.3922
lhand -18.1898 11.1956
lfingers 7.12502
lthumb 8.08718 41.0209
rfemur -104.028 5.78095 15.9179
rtibia 106.906
rfoot -2.796 3.21125
rtoes -0.386579
lfemur -28.8006 -4.25332 -15.2364
ltibia 30.1376
lfoot -0.239026 -26.6467
ltoes 11.0172
